<svg width="154" height="40" viewBox="0 0 154 40" fill="none" xmlns="http://www.w3.org/2000/svg">
<rect width="154" height="40" rx="5" fill="#0C0D10"/>
<path d="M97.5259 19.2009V21.4919H96.0899V22.9944H97.5259V28.0994C97.5259 29.8425 98.3145 30.5398 100.298 30.5398C100.647 30.5398 100.979 30.4983 101.27 30.4485V28.9626C101.021 28.9875 100.863 29.0041 100.589 29.0041C99.7007 29.0041 99.3106 28.5891 99.3106 27.6428V22.9944H101.27V21.4919H99.3106V19.2009H97.5259Z" fill="white"/>
<path d="M106.323 30.6643C108.963 30.6643 110.582 28.8962 110.582 25.9661C110.582 23.0525 108.955 21.2761 106.323 21.2761C103.684 21.2761 102.057 23.0525 102.057 25.9661C102.057 28.8962 103.675 30.6643 106.323 30.6643ZM106.323 29.0789C104.771 29.0789 103.9 27.9416 103.9 25.9661C103.9 24.0071 104.771 22.8616 106.323 22.8616C107.867 22.8616 108.747 24.0071 108.747 25.9661C108.747 27.9333 107.867 29.0789 106.323 29.0789Z" fill="white"/>
<path d="M111.967 30.49H113.751V25.1526C113.751 23.8826 114.706 23.0276 116.059 23.0276C116.374 23.0276 116.906 23.0857 117.055 23.1355V21.3757C116.864 21.3259 116.524 21.301 116.258 21.301C115.079 21.301 114.075 21.9485 113.818 22.8367H113.685V21.4504H111.967V30.49Z" fill="white"/>
<path d="M121.486 22.7952C122.806 22.7952 123.669 23.7165 123.711 25.136H119.145C119.245 23.7248 120.166 22.7952 121.486 22.7952ZM123.703 28.0496C123.371 28.7551 122.632 29.1453 121.553 29.1453C120.125 29.1453 119.204 28.1409 119.145 26.5554V26.4558H125.529V25.8332C125.529 22.9944 124.01 21.2761 121.495 21.2761C118.946 21.2761 117.328 23.1106 117.328 25.9993C117.328 28.8879 118.913 30.6643 121.503 30.6643C123.57 30.6643 125.014 29.6682 125.421 28.0496H123.703Z" fill="white"/>
<path d="M85.8223 27.1518C85.96 29.3715 87.8098 30.7911 90.5629 30.7911C93.5053 30.7911 95.3464 29.3027 95.3464 26.9281C95.3464 25.0612 94.2968 24.0287 91.7502 23.4351L90.3822 23.0996C88.7647 22.721 88.1109 22.2134 88.1109 21.3272C88.1109 20.2088 89.1261 19.4775 90.6489 19.4775C92.0943 19.4775 93.0923 20.1916 93.273 21.3358H95.1486C95.0367 19.2452 93.1956 17.774 90.6747 17.774C87.9646 17.774 86.1579 19.2452 86.1579 21.4563C86.1579 23.2802 87.1817 24.3643 89.4272 24.8891L91.0275 25.2763C92.6707 25.6634 93.3934 26.2312 93.3934 27.1776C93.3934 28.2789 92.2578 29.079 90.7091 29.079C89.0487 29.079 87.8958 28.3305 87.7323 27.1518H85.8223Z" fill="white"/>
<path d="M67.335 21.301C66.1065 21.301 65.044 21.9153 64.4961 22.9446H64.3633V21.4504H62.6451V33.4949H64.4297V29.1204H64.5708C65.044 30.0749 66.065 30.6394 67.3516 30.6394C69.6343 30.6394 71.087 28.8381 71.087 25.9661C71.087 23.094 69.6343 21.301 67.335 21.301ZM66.8287 29.0373C65.3345 29.0373 64.3965 27.8586 64.3965 25.9744C64.3965 24.0818 65.3345 22.9031 66.837 22.9031C68.3477 22.9031 69.2525 24.0569 69.2525 25.9661C69.2525 27.8835 68.3477 29.0373 66.8287 29.0373Z" fill="white"/>
<path d="M77.3318 21.301C76.1033 21.301 75.0408 21.9153 74.4929 22.9446H74.3601V21.4504H72.6419V33.4949H74.4265V29.1204H74.5676C75.0408 30.0749 76.0618 30.6394 77.3484 30.6394C79.6311 30.6394 81.0838 28.8381 81.0838 25.9661C81.0838 23.094 79.6311 21.301 77.3318 21.301ZM76.8255 29.0373C75.3313 29.0373 74.3933 27.8586 74.3933 25.9744C74.3933 24.0818 75.3313 22.9031 76.8338 22.9031C78.3445 22.9031 79.2493 24.0569 79.2493 25.9661C79.2493 27.8835 78.3445 29.0373 76.8255 29.0373Z" fill="white"/>
<path d="M59.4431 30.49H61.4907L57.0083 18.0751H54.9348L50.4524 30.49H52.4312L53.5755 27.1948H58.3074L59.4431 30.49ZM55.8726 20.3292H56.0189L57.817 25.5774H54.0659L55.8726 20.3292Z" fill="white"/>
<path d="M51.6511 8.71094V14.7H53.8135C55.5981 14.7 56.6316 13.6001 56.6316 11.6868C56.6316 9.80249 55.5898 8.71094 53.8135 8.71094H51.6511ZM52.5808 9.55762H53.7097C54.9507 9.55762 55.6853 10.3462 55.6853 11.6992C55.6853 13.073 54.9631 13.8533 53.7097 13.8533H52.5808V9.55762Z" fill="white"/>
<path d="M59.7967 14.7871C61.1165 14.7871 61.9258 13.9031 61.9258 12.438C61.9258 10.9812 61.1124 10.093 59.7967 10.093C58.4769 10.093 57.6634 10.9812 57.6634 12.438C57.6634 13.9031 58.4727 14.7871 59.7967 14.7871ZM59.7967 13.9944C59.0206 13.9944 58.5848 13.4258 58.5848 12.438C58.5848 11.4585 59.0206 10.8857 59.7967 10.8857C60.5687 10.8857 61.0086 11.4585 61.0086 12.438C61.0086 13.4216 60.5687 13.9944 59.7967 13.9944Z" fill="white"/>
<path d="M68.818 10.1802H67.9256L67.1205 13.6292H67.0499L66.1202 10.1802H65.2652L64.3355 13.6292H64.2691L63.4598 10.1802H62.555L63.8001 14.7H64.7174L65.6471 11.3713H65.7176L66.6515 14.7H67.577L68.818 10.1802Z" fill="white"/>
<path d="M69.8456 14.7H70.7379V12.0562C70.7379 11.3506 71.1571 10.9106 71.817 10.9106C72.477 10.9106 72.7924 11.2717 72.7924 11.998V14.7H73.6847V11.7739C73.6847 10.699 73.1286 10.093 72.12 10.093C71.4394 10.093 70.9911 10.396 70.7711 10.8982H70.7047V10.1802H69.8456V14.7Z" fill="white"/>
<path d="M75.09 14.7H75.9824V8.41626H75.09V14.7Z" fill="white"/>
<path d="M79.3384 14.7871C80.6582 14.7871 81.4675 13.9031 81.4675 12.438C81.4675 10.9812 80.6541 10.093 79.3384 10.093C78.0186 10.093 77.2051 10.9812 77.2051 12.438C77.2051 13.9031 78.0144 14.7871 79.3384 14.7871ZM79.3384 13.9944C78.5623 13.9944 78.1265 13.4258 78.1265 12.438C78.1265 11.4585 78.5623 10.8857 79.3384 10.8857C80.1104 10.8857 80.5503 11.4585 80.5503 12.438C80.5503 13.4216 80.1104 13.9944 79.3384 13.9944Z" fill="white"/>
<path d="M84.1263 14.0234C83.6407 14.0234 83.2879 13.7869 83.2879 13.3801C83.2879 12.9817 83.5701 12.77 84.1927 12.7285L85.2967 12.658V13.0356C85.2967 13.5959 84.7986 14.0234 84.1263 14.0234ZM83.898 14.7747C84.4915 14.7747 84.9854 14.5173 85.2552 14.0649H85.3257V14.7H86.1849V11.6121C86.1849 10.6575 85.5457 10.093 84.4126 10.093C83.3875 10.093 82.657 10.5911 82.5657 11.3672H83.429C83.5286 11.0476 83.8731 10.865 84.3711 10.865C84.9812 10.865 85.2967 11.1348 85.2967 11.6121V12.0022L84.0723 12.0728C82.9974 12.1392 82.3914 12.6082 82.3914 13.4216C82.3914 14.2476 83.0264 14.7747 83.898 14.7747Z" fill="white"/>
<path d="M89.213 14.7747C89.8355 14.7747 90.3626 14.48 90.6324 13.9861H90.703V14.7H91.558V8.41626H90.6656V10.8982H90.5992C90.3543 10.4001 89.8314 10.1055 89.213 10.1055C88.0716 10.1055 87.337 11.0103 87.337 12.438C87.337 13.8699 88.0633 14.7747 89.213 14.7747ZM89.4662 10.9065C90.2132 10.9065 90.6822 11.5 90.6822 12.4421C90.6822 13.3884 90.2174 13.9736 89.4662 13.9736C88.7108 13.9736 88.2584 13.3967 88.2584 12.438C88.2584 11.4875 88.7149 10.9065 89.4662 10.9065Z" fill="white"/>
<path d="M97.3444 14.7871C98.6643 14.7871 99.4736 13.9031 99.4736 12.438C99.4736 10.9812 98.6601 10.093 97.3444 10.093C96.0246 10.093 95.2111 10.9812 95.2111 12.438C95.2111 13.9031 96.0205 14.7871 97.3444 14.7871ZM97.3444 13.9944C96.5683 13.9944 96.1325 13.4258 96.1325 12.438C96.1325 11.4585 96.5683 10.8857 97.3444 10.8857C98.1164 10.8857 98.5563 11.4585 98.5563 12.438C98.5563 13.4216 98.1164 13.9944 97.3444 13.9944Z" fill="white"/>
<path d="M100.655 14.7H101.547V12.0562C101.547 11.3506 101.966 10.9106 102.626 10.9106C103.286 10.9106 103.602 11.2717 103.602 11.998V14.7H104.494V11.7739C104.494 10.699 103.938 10.093 102.929 10.093C102.249 10.093 101.8 10.396 101.58 10.8982H101.514V10.1802H100.655V14.7Z" fill="white"/>
<path d="M108.604 9.05542V10.2009H107.886V10.9521H108.604V13.5046C108.604 14.3762 108.998 14.7249 109.99 14.7249C110.164 14.7249 110.33 14.7041 110.475 14.6792V13.9363C110.351 13.9487 110.272 13.957 110.135 13.957C109.691 13.957 109.496 13.7495 109.496 13.2764V10.9521H110.475V10.2009H109.496V9.05542H108.604Z" fill="white"/>
<path d="M111.673 14.7H112.566V12.0603C112.566 11.3755 112.972 10.9148 113.703 10.9148C114.334 10.9148 114.67 11.28 114.67 12.0022V14.7H115.562V11.7822C115.562 10.7073 114.969 10.0972 114.006 10.0972C113.325 10.0972 112.848 10.4001 112.628 10.9065H112.557V8.41626H111.673V14.7Z" fill="white"/>
<path d="M118.781 10.8525C119.441 10.8525 119.873 11.3132 119.894 12.0229H117.611C117.661 11.3174 118.121 10.8525 118.781 10.8525ZM119.889 13.4797C119.723 13.8325 119.354 14.0276 118.814 14.0276C118.101 14.0276 117.64 13.5254 117.611 12.7327V12.6829H120.802V12.3716C120.802 10.9521 120.043 10.093 118.785 10.093C117.511 10.093 116.702 11.0103 116.702 12.4546C116.702 13.8989 117.495 14.7871 118.789 14.7871C119.823 14.7871 120.545 14.2891 120.748 13.4797H119.889Z" fill="white"/>
<path d="M40.769 20.3008C40.7907 18.6198 41.6934 17.0292 43.1256 16.1488C42.2221 14.8584 40.7088 14.0403 39.1344 13.9911C37.4552 13.8148 35.8272 14.9959 34.9715 14.9959C34.0992 14.9959 32.7817 14.0086 31.363 14.0378C29.5137 14.0975 27.7898 15.1489 26.8901 16.7656C24.9561 20.1141 26.3987 25.0351 28.2513 27.7417C29.1782 29.0671 30.2615 30.5475 31.6789 30.495C33.066 30.4375 33.584 29.6105 35.2583 29.6105C36.9171 29.6105 37.4031 30.495 38.8493 30.4616C40.3377 30.4375 41.2754 29.1304 42.1698 27.7925C42.8358 26.8481 43.3483 25.8044 43.6882 24.7C41.9391 23.9602 40.771 22.2 40.769 20.3008Z" fill="white"/>
<path d="M38.0373 12.2111C38.8489 11.2369 39.2487 9.98469 39.1518 8.72046C37.912 8.85068 36.7668 9.44324 35.9443 10.3801C35.14 11.2954 34.7214 12.5255 34.8006 13.7415C36.0408 13.7542 37.2601 13.1777 38.0373 12.2111Z" fill="white"/>
</svg>
