<svg width="154" height="40" viewBox="0 0 154 40" fill="none" xmlns="http://www.w3.org/2000/svg">
<rect width="154" height="40" rx="5" fill="black"/>
<path d="M77.136 21.7511C74.784 21.7511 72.867 23.5401 72.867 26.0041C72.867 28.4531 74.784 30.2571 77.136 30.2571C79.489 30.2571 81.406 28.4531 81.406 26.0041C81.405 23.5401 79.488 21.7511 77.136 21.7511ZM77.136 28.5831C75.847 28.5831 74.736 27.5201 74.736 26.0051C74.736 24.4741 75.848 23.4271 77.136 23.4271C78.425 23.4271 79.536 24.4741 79.536 26.0051C79.536 27.5191 78.425 28.5831 77.136 28.5831ZM67.822 21.7511C65.47 21.7511 63.553 23.5401 63.553 26.0041C63.553 28.4531 65.47 30.2571 67.822 30.2571C70.175 30.2571 72.092 28.4531 72.092 26.0041C72.092 23.5401 70.175 21.7511 67.822 21.7511ZM67.822 28.5831C66.533 28.5831 65.422 27.5201 65.422 26.0051C65.422 24.4741 66.534 23.4271 67.822 23.4271C69.111 23.4271 70.222 24.4741 70.222 26.0051C70.223 27.5191 69.111 28.5831 67.822 28.5831ZM56.744 23.0571V24.8611H61.062C60.933 25.8761 60.595 26.6171 60.079 27.1321C59.451 27.7601 58.468 28.4531 56.744 28.4531C54.086 28.4531 52.008 26.3101 52.008 23.6521C52.008 20.9941 54.086 18.8511 56.744 18.8511C58.178 18.8511 59.225 19.4151 59.998 20.1401L61.271 18.8671C60.191 17.8361 58.758 17.0471 56.744 17.0471C53.103 17.0471 50.042 20.0111 50.042 23.6521C50.042 27.2931 53.103 30.2571 56.744 30.2571C58.709 30.2571 60.192 29.6121 61.351 28.4041C62.543 27.2121 62.914 25.5361 62.914 24.1831C62.914 23.7651 62.882 23.3781 62.817 23.0561H56.744V23.0571ZM102.052 24.4581C101.698 23.5081 100.618 21.7511 98.411 21.7511C96.22 21.7511 94.399 23.4751 94.399 26.0041C94.399 28.3881 96.204 30.2571 98.62 30.2571C100.569 30.2571 101.697 29.0651 102.165 28.3721L100.715 27.4051C100.232 28.1141 99.571 28.5811 98.62 28.5811C97.67 28.5811 96.993 28.1461 96.558 27.2921L102.245 24.9401L102.052 24.4581ZM96.252 25.8761C96.204 24.2321 97.525 23.3951 98.476 23.3951C99.217 23.3951 99.845 23.7661 100.055 24.2971L96.252 25.8761ZM91.629 30.0001H93.497V17.4991H91.629V30.0001ZM88.567 22.7021H88.503C88.084 22.2021 87.278 21.7511 86.264 21.7511C84.137 21.7511 82.188 23.6201 82.188 26.0211C82.188 28.4051 84.137 30.2581 86.264 30.2581C87.279 30.2581 88.084 29.8071 88.503 29.2921H88.567V29.9041C88.567 31.5311 87.697 32.4011 86.296 32.4011C85.152 32.4011 84.443 31.5801 84.153 30.8871L82.526 31.5641C82.993 32.6911 84.233 34.0771 86.296 34.0771C88.487 34.0771 90.34 32.7881 90.34 29.6461V22.0101H88.568V22.7021H88.567ZM86.425 28.5831C85.136 28.5831 84.057 27.5031 84.057 26.0211C84.057 24.5221 85.136 23.4271 86.425 23.4271C87.697 23.4271 88.696 24.5221 88.696 26.0211C88.696 27.5031 87.697 28.5831 86.425 28.5831ZM110.806 17.4991H106.335V30.0001H108.2V25.2641H110.805C112.873 25.2641 114.907 23.7671 114.907 21.3821C114.907 18.9971 112.874 17.4991 110.806 17.4991ZM110.854 23.5241H108.2V19.2391H110.854C112.249 19.2391 113.041 20.3941 113.041 21.3821C113.041 22.3501 112.249 23.5241 110.854 23.5241ZM122.386 21.7291C121.035 21.7291 119.636 22.3241 119.057 23.6431L120.713 24.3341C121.067 23.6431 121.727 23.4171 122.418 23.4171C123.383 23.4171 124.364 23.9961 124.38 25.0251V25.1541C124.042 24.9611 123.318 24.6721 122.434 24.6721C120.649 24.6721 118.831 25.6531 118.831 27.4861C118.831 29.1591 120.295 30.2361 121.935 30.2361C123.189 30.2361 123.881 29.6731 124.315 29.0131H124.379V29.9781H126.181V25.1851C126.182 22.9671 124.524 21.7291 122.386 21.7291ZM122.16 28.5801C121.55 28.5801 120.697 28.2741 120.697 27.5181C120.697 26.5531 121.759 26.1831 122.676 26.1831C123.495 26.1831 123.882 26.3601 124.38 26.6011C124.235 27.7601 123.238 28.5801 122.16 28.5801ZM132.743 22.0021L130.604 27.4221H130.54L128.32 22.0021H126.31L129.639 29.5771L127.741 33.7911H129.687L134.818 22.0021H132.743ZM115.937 30.0001H117.802V17.4991H115.937V30.0001Z" fill="white"/>
<path d="M56.418 10.2429C56.418 11.0809 56.17 11.7479 55.673 12.2459C55.109 12.8379 54.3731 13.1339 53.4691 13.1339C52.6031 13.1339 51.8661 12.8339 51.2611 12.2339C50.6551 11.6329 50.3521 10.8889 50.3521 10.0009C50.3521 9.11194 50.6551 8.36794 51.2611 7.76794C51.8661 7.16694 52.6031 6.86694 53.4691 6.86694C53.8991 6.86694 54.3101 6.95094 54.7001 7.11794C55.0911 7.28594 55.4041 7.50894 55.6381 7.78794L55.111 8.31594C54.714 7.84094 54.167 7.60394 53.468 7.60394C52.836 7.60394 52.29 7.82594 51.829 8.26994C51.368 8.71394 51.1381 9.29094 51.1381 9.99994C51.1381 10.7089 51.368 11.2859 51.829 11.7299C52.29 12.1739 52.836 12.3959 53.468 12.3959C54.138 12.3959 54.6971 12.1729 55.1441 11.7259C55.4341 11.4349 55.602 11.0299 55.647 10.5109H53.468V9.78994H56.375C56.405 9.94694 56.418 10.0979 56.418 10.2429Z" fill="white"/>
<path d="M61.0281 7.737H58.2961V9.639H60.7601V10.36H58.2961V12.262H61.0281V13H57.5251V7H61.0281V7.737Z" fill="white"/>
<path d="M64.279 13H63.508V7.737H61.832V7H65.955V7.737H64.279V13Z" fill="white"/>
<path d="M68.938 13V7H69.709V13H68.938Z" fill="white"/>
<path d="M73.1281 13H72.3572V7.737H70.6812V7H74.8042V7.737H73.1281V13Z" fill="white"/>
<path d="M82.6089 12.225C82.0189 12.831 81.2859 13.134 80.4089 13.134C79.5319 13.134 78.7989 12.831 78.2099 12.225C77.6199 11.619 77.3259 10.877 77.3259 9.99999C77.3259 9.12299 77.6199 8.38099 78.2099 7.77499C78.7989 7.16899 79.5319 6.86499 80.4089 6.86499C81.2809 6.86499 82.0129 7.16999 82.6049 7.77899C83.1969 8.38799 83.4929 9.12799 83.4929 9.99999C83.4929 10.877 83.1979 11.619 82.6089 12.225ZM78.7789 11.722C79.2229 12.172 79.7659 12.396 80.4089 12.396C81.0519 12.396 81.5959 12.171 82.0389 11.722C82.4829 11.272 82.7059 10.698 82.7059 9.99999C82.7059 9.30199 82.4829 8.72799 82.0389 8.27799C81.5959 7.82799 81.0519 7.60399 80.4089 7.60399C79.7659 7.60399 79.2229 7.82899 78.7789 8.27799C78.3359 8.72799 78.1129 9.30199 78.1129 9.99999C78.1129 10.698 78.3359 11.272 78.7789 11.722Z" fill="white"/>
<path d="M84.5749 13V7H85.513L88.429 11.667H88.4619L88.429 10.511V7H89.1999V13H88.3949L85.344 8.106H85.3109L85.344 9.262V13H84.5749Z" fill="white"/>
<path d="M56.418 10.2429C56.418 11.0809 56.17 11.7479 55.673 12.2459C55.109 12.8379 54.3731 13.1339 53.4691 13.1339C52.6031 13.1339 51.8661 12.8339 51.2611 12.2339C50.6551 11.6329 50.3521 10.8889 50.3521 10.0009C50.3521 9.11194 50.6551 8.36794 51.2611 7.76794C51.8661 7.16694 52.6031 6.86694 53.4691 6.86694C53.8991 6.86694 54.3101 6.95094 54.7001 7.11794C55.0911 7.28594 55.4041 7.50894 55.6381 7.78794L55.111 8.31594C54.714 7.84094 54.167 7.60394 53.468 7.60394C52.836 7.60394 52.29 7.82594 51.829 8.26994C51.368 8.71394 51.1381 9.29094 51.1381 9.99994C51.1381 10.7089 51.368 11.2859 51.829 11.7299C52.29 12.1739 52.836 12.3959 53.468 12.3959C54.138 12.3959 54.6971 12.1729 55.1441 11.7259C55.4341 11.4349 55.602 11.0299 55.647 10.5109H53.468V9.78994H56.375C56.405 9.94694 56.418 10.0979 56.418 10.2429Z" stroke="white" stroke-width="0.2" stroke-miterlimit="10"/>
<path d="M61.0281 7.737H58.2961V9.639H60.7601V10.36H58.2961V12.262H61.0281V13H57.5251V7H61.0281V7.737Z" stroke="white" stroke-width="0.2" stroke-miterlimit="10"/>
<path d="M64.279 13H63.508V7.737H61.832V7H65.955V7.737H64.279V13Z" stroke="white" stroke-width="0.2" stroke-miterlimit="10"/>
<path d="M68.938 13V7H69.709V13H68.938Z" stroke="white" stroke-width="0.2" stroke-miterlimit="10"/>
<path d="M73.1281 13H72.3572V7.737H70.6812V7H74.8042V7.737H73.1281V13Z" stroke="white" stroke-width="0.2" stroke-miterlimit="10"/>
<path d="M82.6089 12.225C82.0189 12.831 81.2859 13.134 80.4089 13.134C79.5319 13.134 78.7989 12.831 78.2099 12.225C77.6199 11.619 77.3259 10.877 77.3259 9.99999C77.3259 9.12299 77.6199 8.38099 78.2099 7.77499C78.7989 7.16899 79.5319 6.86499 80.4089 6.86499C81.2809 6.86499 82.0129 7.16999 82.6049 7.77899C83.1969 8.38799 83.4929 9.12799 83.4929 9.99999C83.4929 10.877 83.1979 11.619 82.6089 12.225ZM78.7789 11.722C79.2229 12.172 79.7659 12.396 80.4089 12.396C81.0519 12.396 81.5959 12.171 82.0389 11.722C82.4829 11.272 82.7059 10.698 82.7059 9.99999C82.7059 9.30199 82.4829 8.72799 82.0389 8.27799C81.5959 7.82799 81.0519 7.60399 80.4089 7.60399C79.7659 7.60399 79.2229 7.82899 78.7789 8.27799C78.3359 8.72799 78.1129 9.30199 78.1129 9.99999C78.1129 10.698 78.3359 11.272 78.7789 11.722Z" stroke="white" stroke-width="0.2" stroke-miterlimit="10"/>
<path d="M84.5749 13V7H85.513L88.429 11.667H88.4619L88.429 10.511V7H89.1999V13H88.3949L85.344 8.106H85.3109L85.344 9.262V13H84.5749Z" stroke="white" stroke-width="0.2" stroke-miterlimit="10"/>
<g filter="url(#filter0_ii_77_237)">
<path d="M19.436 7.53803C19.145 7.84603 18.973 8.32403 18.973 8.94303V31.059C18.973 31.679 19.145 32.156 19.436 32.464L19.51 32.536L31.899 20.147V20.001V19.855L19.51 7.46503L19.436 7.53803Z" fill="url(#paint0_linear_77_237)"/>
<path d="M36.028 24.278L31.899 20.147V20.001V19.855L36.029 15.725L36.122 15.778L41.015 18.558C42.412 19.352 42.412 20.651 41.015 21.446L36.122 24.226L36.028 24.278Z" fill="url(#paint1_linear_77_237)"/>
<g filter="url(#filter1_i_77_237)">
<path d="M36.122 24.225L31.898 20.001L19.436 32.464C19.896 32.952 20.657 33.012 21.514 32.526L36.122 24.225Z" fill="url(#paint2_linear_77_237)"/>
</g>
<path d="M36.122 15.777L21.514 7.47701C20.657 6.99001 19.896 7.05101 19.436 7.53901L31.899 20.002L36.122 15.777Z" fill="url(#paint3_linear_77_237)"/>
</g>
<defs>
<filter id="filter0_ii_77_237" x="18.973" y="7.14093" width="23.0897" height="25.7207" filterUnits="userSpaceOnUse" color-interpolation-filters="sRGB">
<feFlood flood-opacity="0" result="BackgroundImageFix"/>
<feBlend mode="normal" in="SourceGraphic" in2="BackgroundImageFix" result="shape"/>
<feColorMatrix in="SourceAlpha" type="matrix" values="0 0 0 0 0 0 0 0 0 0 0 0 0 0 0 0 0 0 127 0" result="hardAlpha"/>
<feOffset dy="-0.15"/>
<feComposite in2="hardAlpha" operator="arithmetic" k2="-1" k3="1"/>
<feColorMatrix type="matrix" values="0 0 0 0 0 0 0 0 0 0 0 0 0 0 0 0 0 0 0.12 0"/>
<feBlend mode="normal" in2="shape" result="effect1_innerShadow_77_237"/>
<feColorMatrix in="SourceAlpha" type="matrix" values="0 0 0 0 0 0 0 0 0 0 0 0 0 0 0 0 0 0 127 0" result="hardAlpha"/>
<feOffset dy="0.15"/>
<feComposite in2="hardAlpha" operator="arithmetic" k2="-1" k3="1"/>
<feColorMatrix type="matrix" values="0 0 0 0 1 0 0 0 0 1 0 0 0 0 1 0 0 0 0.25 0"/>
<feBlend mode="normal" in2="effect1_innerShadow_77_237" result="effect2_innerShadow_77_237"/>
</filter>
<filter id="filter1_i_77_237" x="19.436" y="20.001" width="16.686" height="12.8607" filterUnits="userSpaceOnUse" color-interpolation-filters="sRGB">
<feFlood flood-opacity="0" result="BackgroundImageFix"/>
<feBlend mode="normal" in="SourceGraphic" in2="BackgroundImageFix" result="shape"/>
<feColorMatrix in="SourceAlpha" type="matrix" values="0 0 0 0 0 0 0 0 0 0 0 0 0 0 0 0 0 0 127 0" result="hardAlpha"/>
<feOffset dy="-0.15"/>
<feComposite in2="hardAlpha" operator="arithmetic" k2="-1" k3="1"/>
<feColorMatrix type="matrix" values="0 0 0 0 0 0 0 0 0 0 0 0 0 0 0 0 0 0 0.08 0"/>
<feBlend mode="normal" in2="shape" result="effect1_innerShadow_77_237"/>
</filter>
<linearGradient id="paint0_linear_77_237" x1="30.8008" y1="8.70903" x2="14.0188" y2="25.491" gradientUnits="userSpaceOnUse">
<stop stop-color="#00A0FF"/>
<stop offset="0.0066" stop-color="#00A1FF"/>
<stop offset="0.2601" stop-color="#00BEFF"/>
<stop offset="0.5122" stop-color="#00D2FF"/>
<stop offset="0.7604" stop-color="#00DFFF"/>
<stop offset="1" stop-color="#00E3FF"/>
</linearGradient>
<linearGradient id="paint1_linear_77_237" x1="42.8335" y1="20.001" x2="18.6376" y2="20.001" gradientUnits="userSpaceOnUse">
<stop stop-color="#FFE000"/>
<stop offset="0.4087" stop-color="#FFBD00"/>
<stop offset="0.7754" stop-color="#FFA500"/>
<stop offset="1" stop-color="#FF9C00"/>
</linearGradient>
<linearGradient id="paint2_linear_77_237" x1="33.8281" y1="22.2949" x2="11.0696" y2="45.0534" gradientUnits="userSpaceOnUse">
<stop stop-color="#FF3A44"/>
<stop offset="1" stop-color="#C31162"/>
</linearGradient>
<linearGradient id="paint3_linear_77_237" x1="16.2974" y1="0.176806" x2="26.4597" y2="10.3391" gradientUnits="userSpaceOnUse">
<stop stop-color="#32A071"/>
<stop offset="0.0685" stop-color="#2DA771"/>
<stop offset="0.4762" stop-color="#15CF74"/>
<stop offset="0.8009" stop-color="#06E775"/>
<stop offset="1" stop-color="#00F076"/>
</linearGradient>
</defs>
</svg>
